<svg version="1.0" xmlns="http://www.w3.org/2000/svg"
 width="32.000000pt" height="32.000000pt" viewBox="0 0 32.000000 32.000000"
 preserveAspectRatio="xMidYMid meet">

<g transform="translate(0.000000,32.000000) scale(0.100000,-0.100000)"
fill="#000000" stroke="none">
<path d="M16 301 c-4 -5 -4 -15 -2 -23 3 -7 10 -32 16 -55 l11 -42 59 -7 c33
-4 60 -10 60 -14 0 -4 -27 -10 -60 -14 l-59 -7 -11 -42 c-6 -23 -13 -49 -16
-59 -3 -9 0 -19 5 -22 12 -8 291 130 291 144 0 8 -269 150 -284 150 -3 0 -7
-4 -10 -9z"/>
</g>
</svg>
